<?xml version="1.0" encoding="UTF-8"?>
<svg xmlns="http://www.w3.org/2000/svg"
  width="1024" height="1024"
  viewBox="50 -380 1024 1024"
  preserveAspectRatio="xMidYMid meet">
  <g transform="translate(512,512) scale(0.30,-0.30) translate(-5120,-5120)" fill="#0F1D4D">
    <path d="M4263 7810 c-115 -58 -168 -145 -167 -275 0 -66 5 -89 26 -130 92
    -175 327 -222 473 -93 25 22 58 61 73 86 24 42 27 56 27 142 0 108 -15 147
    -82 213 -60 61 -106 80 -203 85 -79 3 -89 2 -147 -28z"/>
    <path d="M6350 7299 c-170 -15 -184 -31 -93 -113 l56 -52 -63 -74 c-86 -102
    -278 -292 -370 -366 -300 -241 -662 -434 -1060 -564 -63 -20 -130 -41 -147
    -44 l-33 -8 0 481 0 481 -265 0 -266 0 3 -897 3 -898 32 -68 c43 -89 119 -169
    202 -210 60 -29 75 -32 178 -36 l113 -3 0 481 0 481 28 6 c699 155 1215 441
    1678 930 l137 144 58 -63 c83 -90 87 -84 106 171 13 163 13 204 3 217 -14 17
    -119 18 -300 4z"/>
    <path d="M6492 6647 c-95 -88 -182 -160 -292 -242 -58 -42 -115 -86 -127 -98
    l-23 -20 0 -684 0 -684 93 7 c50 3 115 14 144 24 138 48 246 172 272 315 15
    81 15 1435 0 1435 -6 0 -36 -24 -67 -53z"/>
    <path d="M5836 6139 c-84 -53 -234 -130 -340 -175 l-101 -43 -3 -501 -2 -500
    250 0 250 0 0 625 c0 344 -1 625 -2 625 -2 0 -25 -14 -52 -31z"/>
    <path d="M5141 5819 c-39 -16 -252 -67 -308 -75 -89 -11 -83 21 -83 -424 l-1
    -395 231 -3 230 -2 -2 452 c-3 445 -3 453 -23 455 -11 1 -31 -2 -44 -8z"/>
  </g>
</svg>
